<svg xmlns="http://www.w3.org/2000/svg" xmlns:xlink="http://www.w3.org/1999/xlink" width="500" zoomAndPan="magnify" viewBox="0 0 375 374.999991" height="500" preserveAspectRatio="xMidYMid meet" version="1.0"><defs><g/><clipPath id="683aba69c9"><path d="M 177 117 L 247.484375 117 L 247.484375 187.558594 L 177 187.558594 Z M 177 117 " clip-rule="nonzero"/></clipPath><clipPath id="9506f56cc2"><path d="M 127.484375 117 L 198 117 L 198 187.558594 L 127.484375 187.558594 Z M 127.484375 117 " clip-rule="nonzero"/></clipPath></defs><rect x="-37.5" width="450" fill="#ffffff" y="-37.499999" height="449.999989" fill-opacity="1"/><rect x="-37.5" width="450" fill="#ffffff" y="-37.499999" height="449.999989" fill-opacity="1"/><path stroke-linecap="round" transform="matrix(0.0399733, 0, 0, -0.0400119, 102.501869, 227.35475)" fill="none" stroke-linejoin="round" d="M 2357.871977 3176.185511 C 2305.297884 3247.941507 2141.419161 3255.751683 2099.105811 3143.480398 C 2056.792462 3255.751683 1892.913738 3247.941507 1840.339646 3176.185511 C 1778.87291 3092.42137 1795.38782 2984.1528 1863.59733 2902.145948 C 1931.904562 2819.943841 2099.105811 2689.904405 2099.105811 2689.904405 C 2099.105811 2689.904405 2266.404782 2819.943841 2334.614292 2902.145948 C 2402.921524 2984.1528 2419.436434 3092.42137 2357.871977 3176.185511 Z M 2357.871977 3176.185511 " stroke="#231f1f" stroke-width="56.759998" stroke-opacity="1" stroke-miterlimit="10"/><g clip-path="url(#683aba69c9)"><path stroke-linecap="round" transform="matrix(0.0399733, 0, 0, -0.0400119, 102.501869, 227.35475)" fill="none" stroke-linejoin="round" d="M 2745.825782 2728.46715 C 2501.522378 2728.46715 2281.35615 2625.665704 2125.979186 2461.066237 C 2164.970009 2419.769929 2200.051978 2374.666161 2230.3456 2326.14544 C 2355.819828 2469.657431 2540.220037 2560.353104 2745.825782 2560.353104 C 3124.007451 2560.353104 3430.559362 2253.901308 3430.559362 1875.693517 C 3430.559362 1497.485726 3124.007451 1190.936304 2745.825782 1190.936304 C 2367.644113 1190.936304 2061.092202 1497.485726 2061.092202 1875.693517 C 2061.092202 1979.66649 2084.447607 2078.269967 2125.881464 2166.622587 C 2098.617204 2224.710774 2063.437514 2278.30811 2021.612772 2326.14544 C 1940.210877 2195.422613 1893.01146 2041.074002 1893.01146 1875.693517 C 1893.01146 1404.739882 2274.808819 1022.822257 2745.825782 1022.822257 C 3216.842744 1022.822257 3598.737825 1404.739882 3598.737825 1875.693517 C 3598.737825 2346.74478 3216.842744 2728.46715 2745.825782 2728.46715 Z M 2745.825782 2728.46715 " stroke="#231f1f" stroke-width="56.759998" stroke-opacity="1" stroke-miterlimit="10"/></g><g clip-path="url(#9506f56cc2)"><path stroke-linecap="round" transform="matrix(0.0399733, 0, 0, -0.0400119, 102.501869, 227.35475)" fill="none" stroke-linejoin="round" d="M 2021.905936 1425.436849 C 1896.333986 1281.827231 1711.933777 1190.936304 1506.230311 1190.936304 C 1128.048642 1190.936304 821.496731 1497.485726 821.496731 1875.693517 C 821.496731 2253.901308 1128.048642 2560.353104 1506.230311 2560.353104 C 1884.41198 2560.353104 2190.86617 2253.901308 2190.86617 1875.693517 C 2190.86617 1771.622917 2167.608486 1673.01944 2126.076907 1584.569193 C 2153.438888 1526.481006 2188.618578 1472.883671 2230.3456 1425.241595 C 2311.845215 1555.866795 2359.044633 1710.215405 2359.044633 1875.693517 C 2359.044633 2346.74478 1977.247273 2728.46715 1506.230311 2728.46715 C 1035.213348 2728.46715 653.318268 2346.74478 653.318268 1875.693517 C 653.318268 1404.739882 1035.213348 1022.822257 1506.230311 1022.822257 C 1750.435993 1022.822257 1970.504499 1125.623704 2125.979186 1290.125544 C 2086.890641 1331.519478 2052.101836 1376.818501 2021.905936 1425.436849 Z M 2021.905936 1425.436849 " stroke="#231f1f" stroke-width="56.759998" stroke-opacity="1" stroke-miterlimit="10"/></g><g fill="#000000" fill-opacity="1"><g transform="translate(43.812294, 224.411841)"><g><path d="M 13.75 -8.9375 L 10.453125 -18.671875 L 7.078125 -8.9375 Z M 22.046875 -1.375 L 22.046875 0 L 12.875 0 L 12.875 -1.375 L 16.171875 -1.78125 L 14.296875 -7.34375 L 6.53125 -7.34375 L 4.65625 -1.8125 L 7.921875 -1.375 L 7.921875 0 L 0.171875 0 L 0.171875 -1.375 L 3.03125 -1.8125 L 10.25 -22.546875 L 12.265625 -22.546875 L 19.515625 -1.6875 Z M 22.046875 -1.375 "/></g></g></g><g fill="#000000" fill-opacity="1"><g transform="translate(64.843484, 224.411841)"><g><path d="M 6.734375 -12.265625 C 7.316406 -13.617188 8.039062 -14.671875 8.90625 -15.421875 C 9.78125 -16.171875 10.675781 -16.546875 11.59375 -16.546875 C 12.082031 -16.546875 12.554688 -16.414062 13.015625 -16.15625 C 13.484375 -15.894531 13.773438 -15.472656 13.890625 -14.890625 C 13.890625 -14.328125 13.695312 -13.882812 13.3125 -13.5625 C 12.925781 -13.238281 12.441406 -13.078125 11.859375 -13.078125 C 11.160156 -13.078125 10.519531 -13.359375 9.9375 -13.921875 L 9.703125 -14.15625 C 9.003906 -13.632812 8.421875 -13.019531 7.953125 -12.3125 C 7.484375 -11.601562 7.09375 -10.742188 6.78125 -9.734375 L 6.78125 -7.078125 C 6.78125 -6.335938 6.785156 -5.472656 6.796875 -4.484375 C 6.804688 -3.492188 6.820312 -2.570312 6.84375 -1.71875 L 9.609375 -1.21875 L 9.609375 0 L 1.453125 0 L 1.453125 -1.21875 L 3.875 -1.65625 C 3.894531 -2.507812 3.910156 -3.4375 3.921875 -4.4375 C 3.929688 -5.4375 3.9375 -6.316406 3.9375 -7.078125 L 3.9375 -8.796875 C 3.9375 -9.710938 3.925781 -10.472656 3.90625 -11.078125 C 3.882812 -11.691406 3.863281 -12.335938 3.84375 -13.015625 L 1.171875 -13.3125 L 1.171875 -14.5 L 5.859375 -16.546875 L 6.375 -16.21875 Z M 6.734375 -12.265625 "/></g></g></g><g fill="#000000" fill-opacity="1"><g transform="translate(77.752054, 224.411841)"><g><path d="M 5.15625 -20.15625 C 4.5 -20.15625 3.957031 -20.359375 3.53125 -20.765625 C 3.113281 -21.171875 2.90625 -21.695312 2.90625 -22.34375 C 2.90625 -23 3.113281 -23.519531 3.53125 -23.90625 C 3.957031 -24.300781 4.5 -24.5 5.15625 -24.5 C 5.8125 -24.5 6.351562 -24.300781 6.78125 -23.90625 C 7.207031 -23.519531 7.421875 -23 7.421875 -22.34375 C 7.421875 -21.695312 7.207031 -21.171875 6.78125 -20.765625 C 6.351562 -20.359375 5.8125 -20.15625 5.15625 -20.15625 Z M 9 -1.21875 L 9 0 L 1.171875 0 L 1.171875 -1.21875 L 3.703125 -1.6875 C 3.722656 -2.539062 3.738281 -3.46875 3.75 -4.46875 C 3.769531 -5.46875 3.78125 -6.335938 3.78125 -7.078125 L 3.78125 -8.765625 C 3.78125 -9.679688 3.765625 -10.445312 3.734375 -11.0625 C 3.710938 -11.6875 3.691406 -12.335938 3.671875 -13.015625 L 1.015625 -13.3125 L 1.015625 -14.5 L 6.203125 -16.546875 L 6.703125 -16.21875 L 6.609375 -11.625 L 6.609375 -7.078125 C 6.609375 -6.335938 6.613281 -5.46875 6.625 -4.46875 C 6.632812 -3.46875 6.648438 -2.539062 6.671875 -1.6875 Z M 9 -1.21875 "/></g></g></g><g fill="#000000" fill-opacity="1"><g transform="translate(86.447642, 224.411841)"><g><path d="M 19.453125 -1.21875 L 19.453125 0 L 11.625 0 L 11.625 -1.21875 L 14.125 -1.6875 C 14.144531 -2.519531 14.160156 -3.425781 14.171875 -4.40625 C 14.179688 -5.394531 14.1875 -6.285156 14.1875 -7.078125 L 14.1875 -10.046875 C 14.1875 -11.566406 13.972656 -12.628906 13.546875 -13.234375 C 13.117188 -13.847656 12.410156 -14.15625 11.421875 -14.15625 C 10.640625 -14.15625 9.882812 -13.984375 9.15625 -13.640625 C 8.425781 -13.304688 7.632812 -12.769531 6.78125 -12.03125 L 6.78125 -7.078125 C 6.78125 -6.335938 6.785156 -5.46875 6.796875 -4.46875 C 6.804688 -3.46875 6.820312 -2.539062 6.84375 -1.6875 L 9.203125 -1.21875 L 9.203125 0 L 1.375 0 L 1.375 -1.21875 L 3.875 -1.6875 C 3.894531 -2.539062 3.910156 -3.460938 3.921875 -4.453125 C 3.929688 -5.441406 3.9375 -6.316406 3.9375 -7.078125 L 3.9375 -8.796875 C 3.9375 -9.710938 3.925781 -10.472656 3.90625 -11.078125 C 3.882812 -11.691406 3.863281 -12.335938 3.84375 -13.015625 L 1.171875 -13.3125 L 1.171875 -14.5 L 5.859375 -16.546875 L 6.375 -16.21875 L 6.640625 -13.484375 C 7.472656 -14.398438 8.421875 -15.140625 9.484375 -15.703125 C 10.554688 -16.265625 11.628906 -16.546875 12.703125 -16.546875 C 14.160156 -16.546875 15.242188 -16.0625 15.953125 -15.09375 C 16.660156 -14.132812 17.015625 -12.539062 17.015625 -10.3125 L 17.015625 -7.078125 C 17.015625 -6.285156 17.019531 -5.398438 17.03125 -4.421875 C 17.039062 -3.453125 17.0625 -2.539062 17.09375 -1.6875 Z M 19.453125 -1.21875 "/></g></g></g><g fill="#000000" fill-opacity="1"><g transform="translate(105.557714, 224.411841)"><g><path d="M 10.921875 -8.734375 C 10.335938 -8.578125 9.769531 -8.40625 9.21875 -8.21875 C 8.664062 -8.039062 8.210938 -7.882812 7.859375 -7.75 C 7.109375 -7.457031 6.515625 -7.160156 6.078125 -6.859375 C 5.640625 -6.554688 5.304688 -6.257812 5.078125 -5.96875 C 4.859375 -5.675781 4.710938 -5.382812 4.640625 -5.09375 C 4.578125 -4.800781 4.546875 -4.53125 4.546875 -4.28125 C 4.546875 -3.832031 4.609375 -3.472656 4.734375 -3.203125 C 4.859375 -2.929688 5.007812 -2.695312 5.1875 -2.5 C 5.707031 -1.976562 6.394531 -1.71875 7.25 -1.71875 C 7.519531 -1.71875 7.773438 -1.742188 8.015625 -1.796875 C 8.265625 -1.859375 8.523438 -1.960938 8.796875 -2.109375 C 9.066406 -2.253906 9.367188 -2.441406 9.703125 -2.671875 C 10.046875 -2.910156 10.453125 -3.195312 10.921875 -3.53125 Z M 16.984375 -1.453125 C 16.597656 -0.734375 16.179688 -0.253906 15.734375 -0.015625 C 15.285156 0.222656 14.789062 0.34375 14.25 0.34375 C 13.3125 0.34375 12.570312 0.113281 12.03125 -0.34375 C 11.488281 -0.8125 11.140625 -1.425781 10.984375 -2.1875 C 10.535156 -1.738281 10.117188 -1.34375 9.734375 -1 C 9.359375 -0.664062 8.976562 -0.382812 8.59375 -0.15625 C 8.207031 0.0625 7.8125 0.222656 7.40625 0.328125 C 7.007812 0.441406 6.5625 0.5 6.0625 0.5 C 5.457031 0.5 4.878906 0.410156 4.328125 0.234375 C 3.773438 0.0546875 3.289062 -0.207031 2.875 -0.5625 C 2.46875 -0.925781 2.144531 -1.375 1.90625 -1.90625 C 1.664062 -2.4375 1.546875 -3.046875 1.546875 -3.734375 C 1.546875 -4.210938 1.625 -4.675781 1.78125 -5.125 C 1.9375 -5.570312 2.21875 -6.003906 2.625 -6.421875 C 3.03125 -6.835938 3.597656 -7.253906 4.328125 -7.671875 C 5.054688 -8.085938 5.992188 -8.492188 7.140625 -8.890625 C 7.660156 -9.078125 8.25 -9.265625 8.90625 -9.453125 C 9.570312 -9.640625 10.242188 -9.828125 10.921875 -10.015625 L 10.921875 -10.921875 C 10.921875 -11.734375 10.859375 -12.398438 10.734375 -12.921875 C 10.609375 -13.453125 10.421875 -13.867188 10.171875 -14.171875 C 9.929688 -14.472656 9.613281 -14.6875 9.21875 -14.8125 C 8.820312 -14.9375 8.34375 -15 7.78125 -15 C 7.539062 -15 7.28125 -14.988281 7 -14.96875 C 6.71875 -14.945312 6.40625 -14.898438 6.0625 -14.828125 L 5.390625 -12.46875 C 5.078125 -11.394531 4.472656 -10.859375 3.578125 -10.859375 C 3.097656 -10.859375 2.722656 -10.984375 2.453125 -11.234375 C 2.191406 -11.492188 2.035156 -11.847656 1.984375 -12.296875 C 2.296875 -13.578125 3.035156 -14.601562 4.203125 -15.375 C 5.378906 -16.15625 6.832031 -16.546875 8.5625 -16.546875 C 10.332031 -16.546875 11.644531 -16.097656 12.5 -15.203125 C 13.351562 -14.304688 13.78125 -12.773438 13.78125 -10.609375 L 13.78125 -3.40625 C 13.78125 -2.082031 14.148438 -1.421875 14.890625 -1.421875 C 15.160156 -1.421875 15.394531 -1.476562 15.59375 -1.59375 C 15.800781 -1.71875 15.984375 -1.847656 16.140625 -1.984375 L 16.3125 -2.1875 Z M 16.984375 -1.453125 "/></g></g></g><g fill="#000000" fill-opacity="1"><g transform="translate(121.398518, 224.411841)"><g><path d="M 10.890625 -1.453125 C 10.460938 -0.890625 9.90625 -0.445312 9.21875 -0.125 C 8.53125 0.1875 7.757812 0.34375 6.90625 0.34375 C 5.71875 0.34375 4.78125 0.0351562 4.09375 -0.578125 C 3.40625 -1.203125 3.0625 -2.175781 3.0625 -3.5 C 3.0625 -3.925781 3.066406 -4.347656 3.078125 -4.765625 C 3.085938 -5.179688 3.09375 -5.71875 3.09375 -6.375 L 3.09375 -14.15625 L 0.296875 -14.15625 L 0.296875 -15.640625 L 3.296875 -16.015625 L 4.140625 -20.59375 L 6.203125 -20.59375 L 6.03125 -15.9375 L 10.546875 -15.9375 L 10.546875 -14.15625 L 5.96875 -14.15625 L 5.96875 -3.90625 C 5.96875 -3.03125 6.128906 -2.394531 6.453125 -2 C 6.773438 -1.613281 7.226562 -1.421875 7.8125 -1.421875 C 8.488281 -1.421875 9.242188 -1.734375 10.078125 -2.359375 Z M 10.890625 -1.453125 "/></g></g></g><g fill="#000000" fill-opacity="1"><g transform="translate(131.03781, 224.411841)"><g><path d="M 10.921875 -8.734375 C 10.335938 -8.578125 9.769531 -8.40625 9.21875 -8.21875 C 8.664062 -8.039062 8.210938 -7.882812 7.859375 -7.75 C 7.109375 -7.457031 6.515625 -7.160156 6.078125 -6.859375 C 5.640625 -6.554688 5.304688 -6.257812 5.078125 -5.96875 C 4.859375 -5.675781 4.710938 -5.382812 4.640625 -5.09375 C 4.578125 -4.800781 4.546875 -4.53125 4.546875 -4.28125 C 4.546875 -3.832031 4.609375 -3.472656 4.734375 -3.203125 C 4.859375 -2.929688 5.007812 -2.695312 5.1875 -2.5 C 5.707031 -1.976562 6.394531 -1.71875 7.25 -1.71875 C 7.519531 -1.71875 7.773438 -1.742188 8.015625 -1.796875 C 8.265625 -1.859375 8.523438 -1.960938 8.796875 -2.109375 C 9.066406 -2.253906 9.367188 -2.441406 9.703125 -2.671875 C 10.046875 -2.910156 10.453125 -3.195312 10.921875 -3.53125 Z M 16.984375 -1.453125 C 16.597656 -0.734375 16.179688 -0.253906 15.734375 -0.015625 C 15.285156 0.222656 14.789062 0.34375 14.25 0.34375 C 13.3125 0.34375 12.570312 0.113281 12.03125 -0.34375 C 11.488281 -0.8125 11.140625 -1.425781 10.984375 -2.1875 C 10.535156 -1.738281 10.117188 -1.34375 9.734375 -1 C 9.359375 -0.664062 8.976562 -0.382812 8.59375 -0.15625 C 8.207031 0.0625 7.8125 0.222656 7.40625 0.328125 C 7.007812 0.441406 6.5625 0.5 6.0625 0.5 C 5.457031 0.5 4.878906 0.410156 4.328125 0.234375 C 3.773438 0.0546875 3.289062 -0.207031 2.875 -0.5625 C 2.46875 -0.925781 2.144531 -1.375 1.90625 -1.90625 C 1.664062 -2.4375 1.546875 -3.046875 1.546875 -3.734375 C 1.546875 -4.210938 1.625 -4.675781 1.78125 -5.125 C 1.9375 -5.570312 2.21875 -6.003906 2.625 -6.421875 C 3.03125 -6.835938 3.597656 -7.253906 4.328125 -7.671875 C 5.054688 -8.085938 5.992188 -8.492188 7.140625 -8.890625 C 7.660156 -9.078125 8.25 -9.265625 8.90625 -9.453125 C 9.570312 -9.640625 10.242188 -9.828125 10.921875 -10.015625 L 10.921875 -10.921875 C 10.921875 -11.734375 10.859375 -12.398438 10.734375 -12.921875 C 10.609375 -13.453125 10.421875 -13.867188 10.171875 -14.171875 C 9.929688 -14.472656 9.613281 -14.6875 9.21875 -14.8125 C 8.820312 -14.9375 8.34375 -15 7.78125 -15 C 7.539062 -15 7.28125 -14.988281 7 -14.96875 C 6.71875 -14.945312 6.40625 -14.898438 6.0625 -14.828125 L 5.390625 -12.46875 C 5.078125 -11.394531 4.472656 -10.859375 3.578125 -10.859375 C 3.097656 -10.859375 2.722656 -10.984375 2.453125 -11.234375 C 2.191406 -11.492188 2.035156 -11.847656 1.984375 -12.296875 C 2.296875 -13.578125 3.035156 -14.601562 4.203125 -15.375 C 5.378906 -16.15625 6.832031 -16.546875 8.5625 -16.546875 C 10.332031 -16.546875 11.644531 -16.097656 12.5 -15.203125 C 13.351562 -14.304688 13.78125 -12.773438 13.78125 -10.609375 L 13.78125 -3.40625 C 13.78125 -2.082031 14.148438 -1.421875 14.890625 -1.421875 C 15.160156 -1.421875 15.394531 -1.476562 15.59375 -1.59375 C 15.800781 -1.71875 15.984375 -1.847656 16.140625 -1.984375 L 16.3125 -2.1875 Z M 16.984375 -1.453125 "/></g></g></g><g fill="#000000" fill-opacity="1"><g transform="translate(146.878608, 224.411841)"><g/></g></g><g fill="#000000" fill-opacity="1"><g transform="translate(153.383448, 224.411841)"><g><path d="M 8.765625 -1.65625 C 9.835938 -1.65625 10.820312 -1.894531 11.71875 -2.375 C 12.625 -2.851562 13.398438 -3.421875 14.046875 -4.078125 C 13.460938 -4.796875 12.875 -5.503906 12.28125 -6.203125 C 11.6875 -6.898438 11.03125 -7.640625 10.3125 -8.421875 C 9.769531 -9.003906 9.242188 -9.582031 8.734375 -10.15625 C 8.234375 -10.726562 7.726562 -11.304688 7.21875 -11.890625 C 6.5625 -11.535156 6.015625 -11.148438 5.578125 -10.734375 C 5.140625 -10.316406 4.789062 -9.890625 4.53125 -9.453125 C 4.269531 -9.015625 4.085938 -8.570312 3.984375 -8.125 C 3.890625 -7.675781 3.84375 -7.238281 3.84375 -6.8125 C 3.84375 -6.15625 3.953125 -5.519531 4.171875 -4.90625 C 4.398438 -4.289062 4.722656 -3.738281 5.140625 -3.25 C 5.554688 -2.769531 6.066406 -2.382812 6.671875 -2.09375 C 7.273438 -1.800781 7.972656 -1.65625 8.765625 -1.65625 Z M 8.765625 -13.984375 C 9.640625 -14.640625 10.332031 -15.347656 10.84375 -16.109375 C 11.363281 -16.867188 11.625 -17.710938 11.625 -18.640625 C 11.625 -19.648438 11.347656 -20.4375 10.796875 -21 C 10.242188 -21.5625 9.546875 -21.84375 8.703125 -21.84375 C 7.816406 -21.84375 7.078125 -21.578125 6.484375 -21.046875 C 5.890625 -20.515625 5.59375 -19.820312 5.59375 -18.96875 C 5.59375 -18.382812 5.742188 -17.804688 6.046875 -17.234375 C 6.347656 -16.660156 6.828125 -16.023438 7.484375 -15.328125 Z M 21.203125 -14.1875 C 20.617188 -12.550781 19.957031 -10.988281 19.21875 -9.5 C 18.488281 -8.019531 17.65625 -6.582031 16.71875 -5.1875 C 17.1875 -4.601562 17.648438 -4.035156 18.109375 -3.484375 C 18.578125 -2.929688 19.007812 -2.410156 19.40625 -1.921875 L 23.046875 -1.21875 L 23.046875 0 C 22.691406 0.113281 22.3125 0.195312 21.90625 0.25 C 21.5 0.3125 21.0625 0.34375 20.59375 0.34375 C 19.445312 0.34375 18.550781 0.171875 17.90625 -0.171875 C 17.269531 -0.523438 16.679688 -1.03125 16.140625 -1.6875 C 15.960938 -1.90625 15.773438 -2.113281 15.578125 -2.3125 C 15.390625 -2.519531 15.207031 -2.726562 15.03125 -2.9375 C 14.644531 -2.457031 14.222656 -2.007812 13.765625 -1.59375 C 13.304688 -1.1875 12.789062 -0.820312 12.21875 -0.5 C 11.644531 -0.1875 11.019531 0.0546875 10.34375 0.234375 C 9.664062 0.410156 8.925781 0.5 8.125 0.5 C 7.039062 0.5 6.054688 0.332031 5.171875 0 C 4.285156 -0.332031 3.519531 -0.789062 2.875 -1.375 C 2.238281 -1.96875 1.742188 -2.648438 1.390625 -3.421875 C 1.046875 -4.191406 0.875 -5.015625 0.875 -5.890625 C 0.875 -7.398438 1.335938 -8.703125 2.265625 -9.796875 C 3.203125 -10.898438 4.5625 -11.914062 6.34375 -12.84375 L 6.03125 -13.140625 C 5.195312 -13.992188 4.515625 -14.816406 3.984375 -15.609375 C 3.460938 -16.410156 3.203125 -17.316406 3.203125 -18.328125 C 3.203125 -19.046875 3.34375 -19.695312 3.625 -20.28125 C 3.90625 -20.875 4.296875 -21.367188 4.796875 -21.765625 C 5.304688 -22.171875 5.898438 -22.484375 6.578125 -22.703125 C 7.265625 -22.929688 8.015625 -23.046875 8.828125 -23.046875 C 10.441406 -23.046875 11.679688 -22.644531 12.546875 -21.84375 C 13.421875 -21.050781 13.859375 -20.015625 13.859375 -18.734375 C 13.859375 -17.609375 13.523438 -16.597656 12.859375 -15.703125 C 12.191406 -14.804688 11.117188 -13.929688 9.640625 -13.078125 L 12.140625 -10.453125 C 12.648438 -9.910156 13.222656 -9.269531 13.859375 -8.53125 C 14.503906 -7.789062 15.164062 -7.023438 15.84375 -6.234375 C 16.625 -7.453125 17.316406 -8.710938 17.921875 -10.015625 C 18.535156 -11.316406 19.085938 -12.675781 19.578125 -14.09375 L 16.28125 -14.5625 L 16.28125 -15.9375 L 23.53125 -15.9375 L 23.53125 -14.5625 Z M 21.203125 -14.1875 "/></g></g></g><g fill="#000000" fill-opacity="1"><g transform="translate(176.369455, 224.411841)"><g/></g></g><g fill="#000000" fill-opacity="1"><g transform="translate(182.874295, 224.411841)"><g><path d="M 9.78125 -12.703125 C 10.894531 -12.273438 11.84375 -11.828125 12.625 -11.359375 C 13.414062 -10.890625 14.050781 -10.382812 14.53125 -9.84375 C 15.019531 -9.300781 15.375 -8.710938 15.59375 -8.078125 C 15.820312 -7.453125 15.9375 -6.757812 15.9375 -6 C 15.9375 -4.988281 15.738281 -4.082031 15.34375 -3.28125 C 14.957031 -2.488281 14.410156 -1.8125 13.703125 -1.25 C 12.992188 -0.6875 12.144531 -0.253906 11.15625 0.046875 C 10.164062 0.347656 9.085938 0.5 7.921875 0.5 C 6.640625 0.5 5.421875 0.328125 4.265625 -0.015625 C 3.109375 -0.367188 2.132812 -0.789062 1.34375 -1.28125 L 1.546875 -6 L 3.609375 -6 L 4.28125 -2.09375 C 4.820312 -1.78125 5.363281 -1.546875 5.90625 -1.390625 C 6.457031 -1.242188 7.09375 -1.171875 7.8125 -1.171875 C 9.414062 -1.171875 10.691406 -1.53125 11.640625 -2.25 C 12.597656 -2.976562 13.078125 -4.003906 13.078125 -5.328125 C 13.078125 -5.835938 12.992188 -6.289062 12.828125 -6.6875 C 12.660156 -7.082031 12.40625 -7.4375 12.0625 -7.75 C 11.726562 -8.0625 11.296875 -8.351562 10.765625 -8.625 C 10.234375 -8.894531 9.609375 -9.164062 8.890625 -9.4375 L 7.578125 -9.9375 C 6.703125 -10.28125 5.910156 -10.664062 5.203125 -11.09375 C 4.492188 -11.519531 3.878906 -12.003906 3.359375 -12.546875 C 2.847656 -13.097656 2.453125 -13.710938 2.171875 -14.390625 C 1.890625 -15.066406 1.75 -15.832031 1.75 -16.6875 C 1.75 -17.644531 1.941406 -18.515625 2.328125 -19.296875 C 2.710938 -20.085938 3.238281 -20.765625 3.90625 -21.328125 C 4.582031 -21.890625 5.382812 -22.316406 6.3125 -22.609375 C 7.25 -22.898438 8.253906 -23.046875 9.328125 -23.046875 C 10.472656 -23.046875 11.503906 -22.882812 12.421875 -22.5625 C 13.347656 -22.238281 14.171875 -21.804688 14.890625 -21.265625 L 14.6875 -16.84375 L 12.609375 -16.84375 L 11.890625 -20.6875 C 11.035156 -21.113281 10.128906 -21.328125 9.171875 -21.328125 C 7.867188 -21.328125 6.773438 -21 5.890625 -20.34375 C 5.015625 -19.695312 4.578125 -18.722656 4.578125 -17.421875 C 4.578125 -16.347656 4.910156 -15.492188 5.578125 -14.859375 C 6.242188 -14.234375 7.191406 -13.6875 8.421875 -13.21875 Z M 9.78125 -12.703125 "/></g></g></g><g fill="#000000" fill-opacity="1"><g transform="translate(198.782502, 224.411841)"><g><path d="M 18.53125 -1.21875 L 18.53125 0 L 13.859375 0.34375 L 13.484375 -2.65625 C 12.554688 -1.539062 11.585938 -0.734375 10.578125 -0.234375 C 9.566406 0.253906 8.546875 0.5 7.515625 0.5 C 6.835938 0.5 6.222656 0.390625 5.671875 0.171875 C 5.128906 -0.0351562 4.664062 -0.378906 4.28125 -0.859375 C 3.894531 -1.335938 3.609375 -1.957031 3.421875 -2.71875 C 3.234375 -3.488281 3.140625 -4.4375 3.140625 -5.5625 L 3.234375 -14.046875 L 0.84375 -14.5625 L 0.84375 -15.734375 L 5.796875 -16.21875 L 6.140625 -15.875 L 5.96875 -11.15625 L 5.96875 -5.9375 C 5.96875 -4.425781 6.1875 -3.375 6.625 -2.78125 C 7.0625 -2.1875 7.738281 -1.890625 8.65625 -1.890625 C 10.226562 -1.890625 11.800781 -2.617188 13.375 -4.078125 L 13.484375 -14.046875 L 11.09375 -14.5625 L 11.09375 -15.734375 L 15.96875 -16.21875 L 16.3125 -15.875 L 16.21875 -11.15625 L 16.21875 -1.71875 Z M 18.53125 -1.21875 "/></g></g></g><g fill="#000000" fill-opacity="1"><g transform="translate(217.117385, 224.411841)"><g><path d="M 9.171875 -1.21875 L 9.171875 0 L 0.875 0 L 0.875 -1.21875 L 3.53125 -1.6875 C 3.5625 -2.601562 3.582031 -3.503906 3.59375 -4.390625 C 3.601562 -5.285156 3.609375 -6.179688 3.609375 -7.078125 L 3.609375 -21.53125 L 0.84375 -21.875 L 0.84375 -23.046875 L 6.09375 -24.5625 L 6.578125 -24.296875 L 6.4375 -19.515625 L 6.4375 -7.078125 C 6.4375 -6.179688 6.441406 -5.28125 6.453125 -4.375 C 6.460938 -3.476562 6.476562 -2.582031 6.5 -1.6875 Z M 9.171875 -1.21875 "/></g></g></g><g fill="#000000" fill-opacity="1"><g transform="translate(225.779258, 224.411841)"><g><path d="M 10.921875 -8.734375 C 10.335938 -8.578125 9.769531 -8.40625 9.21875 -8.21875 C 8.664062 -8.039062 8.210938 -7.882812 7.859375 -7.75 C 7.109375 -7.457031 6.515625 -7.160156 6.078125 -6.859375 C 5.640625 -6.554688 5.304688 -6.257812 5.078125 -5.96875 C 4.859375 -5.675781 4.710938 -5.382812 4.640625 -5.09375 C 4.578125 -4.800781 4.546875 -4.53125 4.546875 -4.28125 C 4.546875 -3.832031 4.609375 -3.472656 4.734375 -3.203125 C 4.859375 -2.929688 5.007812 -2.695312 5.1875 -2.5 C 5.707031 -1.976562 6.394531 -1.71875 7.25 -1.71875 C 7.519531 -1.71875 7.773438 -1.742188 8.015625 -1.796875 C 8.265625 -1.859375 8.523438 -1.960938 8.796875 -2.109375 C 9.066406 -2.253906 9.367188 -2.441406 9.703125 -2.671875 C 10.046875 -2.910156 10.453125 -3.195312 10.921875 -3.53125 Z M 16.984375 -1.453125 C 16.597656 -0.734375 16.179688 -0.253906 15.734375 -0.015625 C 15.285156 0.222656 14.789062 0.34375 14.25 0.34375 C 13.3125 0.34375 12.570312 0.113281 12.03125 -0.34375 C 11.488281 -0.8125 11.140625 -1.425781 10.984375 -2.1875 C 10.535156 -1.738281 10.117188 -1.34375 9.734375 -1 C 9.359375 -0.664062 8.976562 -0.382812 8.59375 -0.15625 C 8.207031 0.0625 7.8125 0.222656 7.40625 0.328125 C 7.007812 0.441406 6.5625 0.5 6.0625 0.5 C 5.457031 0.5 4.878906 0.410156 4.328125 0.234375 C 3.773438 0.0546875 3.289062 -0.207031 2.875 -0.5625 C 2.46875 -0.925781 2.144531 -1.375 1.90625 -1.90625 C 1.664062 -2.4375 1.546875 -3.046875 1.546875 -3.734375 C 1.546875 -4.210938 1.625 -4.675781 1.78125 -5.125 C 1.9375 -5.570312 2.21875 -6.003906 2.625 -6.421875 C 3.03125 -6.835938 3.597656 -7.253906 4.328125 -7.671875 C 5.054688 -8.085938 5.992188 -8.492188 7.140625 -8.890625 C 7.660156 -9.078125 8.25 -9.265625 8.90625 -9.453125 C 9.570312 -9.640625 10.242188 -9.828125 10.921875 -10.015625 L 10.921875 -10.921875 C 10.921875 -11.734375 10.859375 -12.398438 10.734375 -12.921875 C 10.609375 -13.453125 10.421875 -13.867188 10.171875 -14.171875 C 9.929688 -14.472656 9.613281 -14.6875 9.21875 -14.8125 C 8.820312 -14.9375 8.34375 -15 7.78125 -15 C 7.539062 -15 7.28125 -14.988281 7 -14.96875 C 6.71875 -14.945312 6.40625 -14.898438 6.0625 -14.828125 L 5.390625 -12.46875 C 5.078125 -11.394531 4.472656 -10.859375 3.578125 -10.859375 C 3.097656 -10.859375 2.722656 -10.984375 2.453125 -11.234375 C 2.191406 -11.492188 2.035156 -11.847656 1.984375 -12.296875 C 2.296875 -13.578125 3.035156 -14.601562 4.203125 -15.375 C 5.378906 -16.15625 6.832031 -16.546875 8.5625 -16.546875 C 10.332031 -16.546875 11.644531 -16.097656 12.5 -15.203125 C 13.351562 -14.304688 13.78125 -12.773438 13.78125 -10.609375 L 13.78125 -3.40625 C 13.78125 -2.082031 14.148438 -1.421875 14.890625 -1.421875 C 15.160156 -1.421875 15.394531 -1.476562 15.59375 -1.59375 C 15.800781 -1.71875 15.984375 -1.847656 16.140625 -1.984375 L 16.3125 -2.1875 Z M 16.984375 -1.453125 "/></g></g></g><g fill="#000000" fill-opacity="1"><g transform="translate(241.620063, 224.411841)"><g><path d="M 8.703125 -9.328125 C 10.398438 -8.703125 11.59375 -7.976562 12.28125 -7.15625 C 12.96875 -6.34375 13.3125 -5.40625 13.3125 -4.34375 C 13.3125 -3.71875 13.175781 -3.113281 12.90625 -2.53125 C 12.632812 -1.945312 12.222656 -1.425781 11.671875 -0.96875 C 11.128906 -0.519531 10.445312 -0.164062 9.625 0.09375 C 8.800781 0.363281 7.851562 0.5 6.78125 0.5 C 5.8125 0.5 4.9375 0.390625 4.15625 0.171875 C 3.382812 -0.0351562 2.570312 -0.363281 1.71875 -0.8125 L 1.625 -4.484375 L 3.46875 -4.484375 L 4.109375 -1.578125 C 4.898438 -1.222656 5.8125 -1.046875 6.84375 -1.046875 C 8.125 -1.046875 9.078125 -1.28125 9.703125 -1.75 C 10.335938 -2.21875 10.65625 -2.847656 10.65625 -3.640625 C 10.65625 -4.359375 10.390625 -4.929688 9.859375 -5.359375 C 9.328125 -5.785156 8.523438 -6.203125 7.453125 -6.609375 L 5.890625 -7.171875 C 4.660156 -7.628906 3.671875 -8.222656 2.921875 -8.953125 C 2.179688 -9.679688 1.8125 -10.582031 1.8125 -11.65625 C 1.8125 -12.3125 1.953125 -12.929688 2.234375 -13.515625 C 2.515625 -14.097656 2.90625 -14.613281 3.40625 -15.0625 C 3.914062 -15.507812 4.535156 -15.867188 5.265625 -16.140625 C 6.003906 -16.410156 6.820312 -16.546875 7.71875 -16.546875 C 8.632812 -16.546875 9.460938 -16.425781 10.203125 -16.1875 C 10.953125 -15.957031 11.695312 -15.617188 12.4375 -15.171875 L 12.296875 -11.734375 L 10.546875 -11.734375 L 10.046875 -14.421875 C 9.234375 -14.804688 8.445312 -15 7.6875 -15 C 6.65625 -15 5.875 -14.78125 5.34375 -14.34375 C 4.8125 -13.90625 4.546875 -13.300781 4.546875 -12.53125 C 4.546875 -11.863281 4.773438 -11.332031 5.234375 -10.9375 C 5.703125 -10.539062 6.519531 -10.128906 7.6875 -9.703125 Z M 8.703125 -9.328125 "/></g></g></g><g fill="#000000" fill-opacity="1"><g transform="translate(254.93306, 224.411841)"><g><path d="M 10.890625 -1.453125 C 10.460938 -0.890625 9.90625 -0.445312 9.21875 -0.125 C 8.53125 0.1875 7.757812 0.34375 6.90625 0.34375 C 5.71875 0.34375 4.78125 0.0351562 4.09375 -0.578125 C 3.40625 -1.203125 3.0625 -2.175781 3.0625 -3.5 C 3.0625 -3.925781 3.066406 -4.347656 3.078125 -4.765625 C 3.085938 -5.179688 3.09375 -5.71875 3.09375 -6.375 L 3.09375 -14.15625 L 0.296875 -14.15625 L 0.296875 -15.640625 L 3.296875 -16.015625 L 4.140625 -20.59375 L 6.203125 -20.59375 L 6.03125 -15.9375 L 10.546875 -15.9375 L 10.546875 -14.15625 L 5.96875 -14.15625 L 5.96875 -3.90625 C 5.96875 -3.03125 6.128906 -2.394531 6.453125 -2 C 6.773438 -1.613281 7.226562 -1.421875 7.8125 -1.421875 C 8.488281 -1.421875 9.242188 -1.734375 10.078125 -2.359375 Z M 10.890625 -1.453125 "/></g></g></g><g fill="#000000" fill-opacity="1"><g transform="translate(264.572352, 224.411841)"><g><path d="M 6.734375 -12.265625 C 7.316406 -13.617188 8.039062 -14.671875 8.90625 -15.421875 C 9.78125 -16.171875 10.675781 -16.546875 11.59375 -16.546875 C 12.082031 -16.546875 12.554688 -16.414062 13.015625 -16.15625 C 13.484375 -15.894531 13.773438 -15.472656 13.890625 -14.890625 C 13.890625 -14.328125 13.695312 -13.882812 13.3125 -13.5625 C 12.925781 -13.238281 12.441406 -13.078125 11.859375 -13.078125 C 11.160156 -13.078125 10.519531 -13.359375 9.9375 -13.921875 L 9.703125 -14.15625 C 9.003906 -13.632812 8.421875 -13.019531 7.953125 -12.3125 C 7.484375 -11.601562 7.09375 -10.742188 6.78125 -9.734375 L 6.78125 -7.078125 C 6.78125 -6.335938 6.785156 -5.472656 6.796875 -4.484375 C 6.804688 -3.492188 6.820312 -2.570312 6.84375 -1.71875 L 9.609375 -1.21875 L 9.609375 0 L 1.453125 0 L 1.453125 -1.21875 L 3.875 -1.65625 C 3.894531 -2.507812 3.910156 -3.4375 3.921875 -4.4375 C 3.929688 -5.4375 3.9375 -6.316406 3.9375 -7.078125 L 3.9375 -8.796875 C 3.9375 -9.710938 3.925781 -10.472656 3.90625 -11.078125 C 3.882812 -11.691406 3.863281 -12.335938 3.84375 -13.015625 L 1.171875 -13.3125 L 1.171875 -14.5 L 5.859375 -16.546875 L 6.375 -16.21875 Z M 6.734375 -12.265625 "/></g></g></g><g fill="#000000" fill-opacity="1"><g transform="translate(277.480911, 224.411841)"><g><path d="M 5.15625 -20.15625 C 4.5 -20.15625 3.957031 -20.359375 3.53125 -20.765625 C 3.113281 -21.171875 2.90625 -21.695312 2.90625 -22.34375 C 2.90625 -23 3.113281 -23.519531 3.53125 -23.90625 C 3.957031 -24.300781 4.5 -24.5 5.15625 -24.5 C 5.8125 -24.5 6.351562 -24.300781 6.78125 -23.90625 C 7.207031 -23.519531 7.421875 -23 7.421875 -22.34375 C 7.421875 -21.695312 7.207031 -21.171875 6.78125 -20.765625 C 6.351562 -20.359375 5.8125 -20.15625 5.15625 -20.15625 Z M 9 -1.21875 L 9 0 L 1.171875 0 L 1.171875 -1.21875 L 3.703125 -1.6875 C 3.722656 -2.539062 3.738281 -3.46875 3.75 -4.46875 C 3.769531 -5.46875 3.78125 -6.335938 3.78125 -7.078125 L 3.78125 -8.765625 C 3.78125 -9.679688 3.765625 -10.445312 3.734375 -11.0625 C 3.710938 -11.6875 3.691406 -12.335938 3.671875 -13.015625 L 1.015625 -13.3125 L 1.015625 -14.5 L 6.203125 -16.546875 L 6.703125 -16.21875 L 6.609375 -11.625 L 6.609375 -7.078125 C 6.609375 -6.335938 6.613281 -5.46875 6.625 -4.46875 C 6.632812 -3.46875 6.648438 -2.539062 6.671875 -1.6875 Z M 9 -1.21875 "/></g></g></g><g fill="#000000" fill-opacity="1"><g transform="translate(286.176502, 224.411841)"><g><path d="M 10.921875 -8.734375 C 10.335938 -8.578125 9.769531 -8.40625 9.21875 -8.21875 C 8.664062 -8.039062 8.210938 -7.882812 7.859375 -7.75 C 7.109375 -7.457031 6.515625 -7.160156 6.078125 -6.859375 C 5.640625 -6.554688 5.304688 -6.257812 5.078125 -5.96875 C 4.859375 -5.675781 4.710938 -5.382812 4.640625 -5.09375 C 4.578125 -4.800781 4.546875 -4.53125 4.546875 -4.28125 C 4.546875 -3.832031 4.609375 -3.472656 4.734375 -3.203125 C 4.859375 -2.929688 5.007812 -2.695312 5.1875 -2.5 C 5.707031 -1.976562 6.394531 -1.71875 7.25 -1.71875 C 7.519531 -1.71875 7.773438 -1.742188 8.015625 -1.796875 C 8.265625 -1.859375 8.523438 -1.960938 8.796875 -2.109375 C 9.066406 -2.253906 9.367188 -2.441406 9.703125 -2.671875 C 10.046875 -2.910156 10.453125 -3.195312 10.921875 -3.53125 Z M 16.984375 -1.453125 C 16.597656 -0.734375 16.179688 -0.253906 15.734375 -0.015625 C 15.285156 0.222656 14.789062 0.34375 14.25 0.34375 C 13.3125 0.34375 12.570312 0.113281 12.03125 -0.34375 C 11.488281 -0.8125 11.140625 -1.425781 10.984375 -2.1875 C 10.535156 -1.738281 10.117188 -1.34375 9.734375 -1 C 9.359375 -0.664062 8.976562 -0.382812 8.59375 -0.15625 C 8.207031 0.0625 7.8125 0.222656 7.40625 0.328125 C 7.007812 0.441406 6.5625 0.5 6.0625 0.5 C 5.457031 0.5 4.878906 0.410156 4.328125 0.234375 C 3.773438 0.0546875 3.289062 -0.207031 2.875 -0.5625 C 2.46875 -0.925781 2.144531 -1.375 1.90625 -1.90625 C 1.664062 -2.4375 1.546875 -3.046875 1.546875 -3.734375 C 1.546875 -4.210938 1.625 -4.675781 1.78125 -5.125 C 1.9375 -5.570312 2.21875 -6.003906 2.625 -6.421875 C 3.03125 -6.835938 3.597656 -7.253906 4.328125 -7.671875 C 5.054688 -8.085938 5.992188 -8.492188 7.140625 -8.890625 C 7.660156 -9.078125 8.25 -9.265625 8.90625 -9.453125 C 9.570312 -9.640625 10.242188 -9.828125 10.921875 -10.015625 L 10.921875 -10.921875 C 10.921875 -11.734375 10.859375 -12.398438 10.734375 -12.921875 C 10.609375 -13.453125 10.421875 -13.867188 10.171875 -14.171875 C 9.929688 -14.472656 9.613281 -14.6875 9.21875 -14.8125 C 8.820312 -14.9375 8.34375 -15 7.78125 -15 C 7.539062 -15 7.28125 -14.988281 7 -14.96875 C 6.71875 -14.945312 6.40625 -14.898438 6.0625 -14.828125 L 5.390625 -12.46875 C 5.078125 -11.394531 4.472656 -10.859375 3.578125 -10.859375 C 3.097656 -10.859375 2.722656 -10.984375 2.453125 -11.234375 C 2.191406 -11.492188 2.035156 -11.847656 1.984375 -12.296875 C 2.296875 -13.578125 3.035156 -14.601562 4.203125 -15.375 C 5.378906 -16.15625 6.832031 -16.546875 8.5625 -16.546875 C 10.332031 -16.546875 11.644531 -16.097656 12.5 -15.203125 C 13.351562 -14.304688 13.78125 -12.773438 13.78125 -10.609375 L 13.78125 -3.40625 C 13.78125 -2.082031 14.148438 -1.421875 14.890625 -1.421875 C 15.160156 -1.421875 15.394531 -1.476562 15.59375 -1.59375 C 15.800781 -1.71875 15.984375 -1.847656 16.140625 -1.984375 L 16.3125 -2.1875 Z M 16.984375 -1.453125 "/></g></g></g><g fill="#000000" fill-opacity="1"><g transform="translate(302.017307, 224.411841)"><g><path d="M 19.453125 -1.21875 L 19.453125 0 L 11.625 0 L 11.625 -1.21875 L 14.125 -1.6875 C 14.144531 -2.519531 14.160156 -3.425781 14.171875 -4.40625 C 14.179688 -5.394531 14.1875 -6.285156 14.1875 -7.078125 L 14.1875 -10.046875 C 14.1875 -11.566406 13.972656 -12.628906 13.546875 -13.234375 C 13.117188 -13.847656 12.410156 -14.15625 11.421875 -14.15625 C 10.640625 -14.15625 9.882812 -13.984375 9.15625 -13.640625 C 8.425781 -13.304688 7.632812 -12.769531 6.78125 -12.03125 L 6.78125 -7.078125 C 6.78125 -6.335938 6.785156 -5.46875 6.796875 -4.46875 C 6.804688 -3.46875 6.820312 -2.539062 6.84375 -1.6875 L 9.203125 -1.21875 L 9.203125 0 L 1.375 0 L 1.375 -1.21875 L 3.875 -1.6875 C 3.894531 -2.539062 3.910156 -3.460938 3.921875 -4.453125 C 3.929688 -5.441406 3.9375 -6.316406 3.9375 -7.078125 L 3.9375 -8.796875 C 3.9375 -9.710938 3.925781 -10.472656 3.90625 -11.078125 C 3.882812 -11.691406 3.863281 -12.335938 3.84375 -13.015625 L 1.171875 -13.3125 L 1.171875 -14.5 L 5.859375 -16.546875 L 6.375 -16.21875 L 6.640625 -13.484375 C 7.472656 -14.398438 8.421875 -15.140625 9.484375 -15.703125 C 10.554688 -16.265625 11.628906 -16.546875 12.703125 -16.546875 C 14.160156 -16.546875 15.242188 -16.0625 15.953125 -15.09375 C 16.660156 -14.132812 17.015625 -12.539062 17.015625 -10.3125 L 17.015625 -7.078125 C 17.015625 -6.285156 17.019531 -5.398438 17.03125 -4.421875 C 17.039062 -3.453125 17.0625 -2.539062 17.09375 -1.6875 Z M 19.453125 -1.21875 "/></g></g></g><g fill="#000000" fill-opacity="1"><g transform="translate(321.127378, 224.411841)"><g><path d="M 5.15625 -20.15625 C 4.5 -20.15625 3.957031 -20.359375 3.53125 -20.765625 C 3.113281 -21.171875 2.90625 -21.695312 2.90625 -22.34375 C 2.90625 -23 3.113281 -23.519531 3.53125 -23.90625 C 3.957031 -24.300781 4.5 -24.5 5.15625 -24.5 C 5.8125 -24.5 6.351562 -24.300781 6.78125 -23.90625 C 7.207031 -23.519531 7.421875 -23 7.421875 -22.34375 C 7.421875 -21.695312 7.207031 -21.171875 6.78125 -20.765625 C 6.351562 -20.359375 5.8125 -20.15625 5.15625 -20.15625 Z M 9 -1.21875 L 9 0 L 1.171875 0 L 1.171875 -1.21875 L 3.703125 -1.6875 C 3.722656 -2.539062 3.738281 -3.46875 3.75 -4.46875 C 3.769531 -5.46875 3.78125 -6.335938 3.78125 -7.078125 L 3.78125 -8.765625 C 3.78125 -9.679688 3.765625 -10.445312 3.734375 -11.0625 C 3.710938 -11.6875 3.691406 -12.335938 3.671875 -13.015625 L 1.015625 -13.3125 L 1.015625 -14.5 L 6.203125 -16.546875 L 6.703125 -16.21875 L 6.609375 -11.625 L 6.609375 -7.078125 C 6.609375 -6.335938 6.613281 -5.46875 6.625 -4.46875 C 6.632812 -3.46875 6.648438 -2.539062 6.671875 -1.6875 Z M 9 -1.21875 "/></g></g></g></svg>