<?xml version="1.0" standalone="no"?>
<!DOCTYPE svg PUBLIC "-//W3C//DTD SVG 20010904//EN"
 "http://www.w3.org/TR/2001/REC-SVG-20010904/DTD/svg10.dtd">
<svg version="1.0" xmlns="http://www.w3.org/2000/svg"
 width="1280.000000pt" height="986.000000pt" viewBox="0 0 1280.000000 986.000000"
 preserveAspectRatio="xMidYMid meet">
<metadata>
Created by potrace 1.15, written by Peter Selinger 2001-2017
</metadata>
<g transform="translate(0.000000,986.000000) scale(0.100000,-0.100000)"
fill="#D0AE7E" stroke="none">
<path d="M9198 9850 c-604 -77 -1058 -589 -1058 -1195 0 -405 220 -800 560
-1007 49 -30 27 -11 -56 50 -149 108 -283 273 -364 445 -290 619 24 1360 670
1580 442 151 888 33 1365 -360 460 -379 766 -889 874 -1453 34 -177 44 -287
44 -480 0 -264 -27 -454 -98 -704 -34 -116 -55 -166 -41 -96 37 185 40 221 40
475 0 240 -2 270 -27 395 -46 236 -102 407 -197 605 -165 341 -379 549 -654
634 -408 126 -823 -98 -938 -506 -28 -100 -29 -256 -4 -358 25 -100 88 -223
147 -286 l50 -54 -45 57 c-97 123 -147 272 -147 434 0 313 194 570 501 665 95
30 260 32 359 5 144 -39 273 -116 386 -230 231 -233 410 -690 445 -1139 28
-351 -41 -730 -193 -1067 l-53 -115 -79 -7 c-418 -38 -888 -239 -1223 -524
l-59 -50 72 -79 72 -80 64 56 c282 244 642 419 997 483 40 7 41 10 -47 -104
-237 -307 -600 -572 -958 -699 -50 -19 -94 -40 -98 -48 -4 -12 19 -107 50
-199 7 -22 253 76 428 170 366 196 715 505 930 823 71 106 56 101 238 83 504
-50 945 -284 1231 -653 296 -384 390 -887 246 -1327 -126 -387 -432 -697 -811
-821 -129 -42 -243 -59 -392 -60 -337 0 -633 117 -875 348 -140 133 -228 261
-301 436 -21 50 -39 86 -39 79 0 -7 15 -51 34 -98 142 -352 436 -628 797 -748
162 -54 273 -69 463 -63 138 4 178 9 279 36 385 102 686 349 871 718 96 193
141 396 140 643 0 164 -13 265 -51 400 -152 547 -576 982 -1148 1180 -131 45
-320 86 -439 97 -42 3 -76 8 -76 10 0 2 15 34 34 71 113 225 201 508 243 782
25 166 25 566 -1 745 -81 567 -336 1077 -741 1480 -321 320 -688 538 -1025
610 -89 19 -298 27 -392 15z"/>
<path d="M2717 8711 c-39 -63 -129 -167 -317 -371 -199 -217 -300 -351 -374
-499 -94 -185 -101 -386 -21 -567 23 -52 26 -54 62 -54 64 0 214 -28 292 -54
l73 -26 -6 24 c-8 31 18 232 50 396 31 158 93 410 106 430 7 11 8 8 4 -10 -31
-135 -65 -452 -73 -690 l-6 -176 84 -54 c46 -30 116 -81 156 -112 40 -32 76
-58 80 -58 4 0 23 15 43 34 54 51 168 135 275 201 105 65 104 64 135 184 46
176 43 373 -6 530 -38 117 -94 222 -232 433 -154 237 -183 287 -238 402 -25
53 -46 96 -47 96 -1 0 -19 -27 -40 -59z"/>
<path d="M6332 8384 c-79 -39 -143 -119 -217 -269 -75 -153 -122 -291 -216
-630 -82 -296 -113 -393 -146 -458 -13 -27 -23 -50 -21 -51 2 -2 75 -13 163
-25 532 -77 883 -250 1038 -512 46 -79 87 -203 94 -286 3 -35 8 -63 12 -63 3
0 26 39 51 86 43 83 87 134 115 134 14 0 34 -47 97 -230 112 -330 176 -687
165 -923 l-5 -108 67 37 c508 279 869 745 979 1266 89 416 25 796 -188 1123
-68 103 -222 256 -331 328 -142 94 -246 137 -509 212 -113 32 -174 64 -340
180 -69 48 -150 99 -180 115 -131 66 -292 100 -471 100 -93 0 -111 -3 -157
-26z"/>
<path d="M4630 7999 c-61 -11 -158 -52 -222 -97 -24 -17 -92 -74 -153 -127
-205 -181 -299 -241 -462 -294 -50 -16 -127 -35 -171 -41 l-82 -12 -23 -52
c-55 -119 -133 -199 -377 -386 -244 -187 -359 -319 -410 -466 -33 -94 -26
-193 26 -379 48 -168 174 -440 252 -543 l18 -23 77 41 77 42 -8 56 c-12 97 -7
252 11 312 34 114 101 186 216 232 50 20 73 22 221 22 197 1 270 -12 647 -115
139 -38 255 -69 257 -69 3 0 33 37 67 83 260 343 495 538 855 710 78 37 147
67 152 67 17 0 59 60 87 123 13 31 34 108 46 170 12 61 30 140 40 174 11 34
19 66 19 71 0 5 -64 52 -142 104 -345 229 -609 356 -818 394 -85 15 -121 16
-200 3z"/>
<path d="M8740 7626 c0 -3 9 -10 20 -16 11 -6 20 -8 20 -6 0 3 -9 10 -20 16
-11 6 -20 8 -20 6z"/>
<path d="M520 7300 c0 -4 9 -15 20 -25 70 -64 201 -303 324 -595 43 -102 117
-275 163 -385 113 -266 253 -553 341 -698 259 -427 540 -637 879 -659 l63 -4
11 35 c6 20 32 76 58 125 56 109 165 229 288 317 46 34 83 62 81 64 -2 2 -66
31 -143 65 -393 173 -733 406 -945 646 -53 61 -121 154 -100 138 385 -294 765
-536 1003 -638 95 -40 244 -82 265 -74 5 1 -10 52 -34 111 -131 325 -192 584
-181 766 5 97 29 167 82 247 l35 53 -53 54 c-180 183 -547 300 -1162 371 -71
9 -305 29 -519 46 -214 17 -409 35 -433 39 -23 5 -43 5 -43 1z"/>
<path d="M5745 6799 c-32 -5 -84 -16 -114 -25 -58 -17 -151 -60 -151 -71 0 -3
46 -3 103 -1 133 7 375 -7 485 -27 240 -44 437 -133 570 -258 49 -46 152 -187
152 -208 0 -4 5 -20 11 -36 l10 -28 29 46 c15 25 36 68 46 96 l18 50 -29 56
c-101 200 -365 352 -698 401 -112 17 -332 19 -432 5z"/>
<path d="M5470 6640 c-233 -27 -436 -131 -599 -306 -358 -384 -498 -1028 -312
-1438 71 -157 211 -314 330 -369 133 -63 326 -46 534 47 l59 26 -32 42 c-140
185 -283 449 -302 558 -7 37 -24 84 -40 109 -16 26 -28 59 -28 78 0 53 28 64
193 75 78 5 153 14 167 21 l25 12 1 175 c0 147 4 189 23 265 83 326 306 554
608 623 l78 18 -115 22 c-228 43 -445 59 -590 42z"/>
<path d="M6069 6491 c-87 -28 -162 -75 -227 -145 -82 -88 -116 -160 -116 -251
-1 -84 19 -130 81 -192 37 -37 45 -42 67 -33 13 5 63 12 110 16 l86 7 0 41 c1
127 21 297 40 349 39 105 124 156 240 145 22 -2 40 -1 40 2 0 11 -87 59 -125
69 -58 16 -132 13 -196 -8z"/>
<path d="M9115 6468 c-54 -22 -203 -61 -386 -102 l-115 -27 -12 -67 c-52 -305
-301 -705 -596 -960 -166 -143 -314 -233 -474 -287 l-67 -23 0 -212 0 -212 50
6 c28 3 118 9 201 12 478 21 762 -135 830 -456 22 -105 15 -311 -16 -448 -13
-56 -20 -105 -17 -109 13 -12 171 26 235 58 77 38 186 138 243 223 140 210
222 498 271 956 19 184 16 843 -5 1065 -23 238 -34 332 -57 473 -11 67 -20
125 -20 127 0 7 -11 5 -65 -17z"/>
<path d="M6297 6356 c-50 -18 -68 -36 -101 -96 -35 -65 -56 -164 -56 -272 l0
-87 43 -5 c23 -3 76 -8 117 -11 41 -4 109 -13 150 -21 l75 -14 63 63 c35 34
87 88 115 121 l51 59 -79 76 c-90 87 -208 168 -274 188 -53 16 -56 16 -104 -1z"/>
<path d="M3407 6184 c-62 -19 -141 -94 -157 -149 -37 -127 -16 -299 56 -458
79 -172 87 -242 42 -331 -33 -65 -35 -148 -6 -232 55 -157 192 -349 392 -550
145 -144 211 -197 351 -277 347 -201 821 -258 1336 -161 74 14 422 97 457 109
18 7 -66 113 -138 174 -30 26 -105 84 -167 129 l-112 82 -73 -39 c-122 -66
-196 -86 -323 -86 -64 0 -131 6 -160 14 -212 59 -422 266 -519 512 -50 128
-60 191 -60 369 -1 133 4 186 22 272 22 104 75 299 106 386 12 33 13 44 3 47
-48 18 -561 159 -637 176 -127 28 -346 35 -413 13z"/>
<path d="M6936 6185 c-38 -105 -97 -180 -332 -426 -83 -86 -164 -178 -182
-205 -48 -76 -120 -95 -467 -124 -385 -33 -494 -50 -657 -101 -67 -21 -98 -36
-98 -46 0 -34 74 -234 121 -331 89 -179 212 -334 369 -465 120 -100 140 -111
96 -52 -92 120 -66 249 83 408 134 142 294 254 696 487 312 181 343 202 350
243 11 66 34 285 39 377 7 106 -6 268 -18 235z"/>
<path d="M7123 6047 c-32 -61 -32 -65 -38 -237 -13 -411 -68 -834 -157 -1200
-70 -294 -206 -633 -321 -802 -25 -38 -44 -68 -41 -68 2 0 35 21 75 46 39 25
110 64 157 85 150 68 172 82 241 154 160 166 252 364 301 650 65 381 10 903
-141 1335 -16 47 -33 88 -37 92 -4 4 -22 -21 -39 -55z"/>
<path d="M5625 5980 c-35 -112 -43 -220 -21 -325 9 -44 20 -82 24 -86 4 -4
160 6 346 21 l340 28 77 83 77 84 -27 9 c-14 4 -123 9 -241 10 -202 1 -219 0
-279 -22 l-64 -23 -41 28 c-55 38 -111 122 -140 208 l-24 70 -27 -85z"/>
<path d="M6980 5552 c0 -16 -72 -97 -133 -149 -29 -24 -171 -125 -317 -223
-388 -261 -508 -368 -591 -530 -33 -62 -34 -70 -34 -175 0 -100 3 -116 29
-173 54 -117 146 -173 318 -192 95 -11 234 -1 348 24 l55 12 55 109 c112 221
167 444 225 915 14 113 33 245 41 293 9 48 14 91 10 94 -3 4 -6 1 -6 -5z"/>
<path d="M3116 5514 c-206 -41 -362 -150 -495 -347 -29 -43 -95 -162 -148
-265 -109 -210 -160 -298 -209 -359 -38 -47 -39 -52 -19 -108 23 -64 21 -65
-47 -43 -210 66 -486 97 -699 79 -431 -38 -770 -192 -1060 -481 -225 -224
-341 -436 -411 -752 -18 -84 -23 -133 -23 -268 0 -187 12 -267 61 -419 105
-320 333 -589 624 -736 95 -47 214 -90 282 -100 43 -6 50 -12 126 -108 387
-488 946 -811 1562 -904 172 -26 511 -23 687 5 267 43 473 108 708 222 349
169 631 403 863 714 124 165 251 391 302 534 21 61 21 64 4 83 -18 20 -19 19
-40 -29 l-22 -50 -83 -10 -84 -11 78 5 c42 3 77 2 77 -1 0 -14 -117 -236 -162
-309 -329 -524 -846 -885 -1463 -1019 -223 -49 -564 -66 -765 -38 -515 71
-952 282 -1319 636 -86 83 -221 235 -221 249 0 3 27 6 59 6 177 0 432 86 605
203 85 57 210 179 278 271 109 146 200 369 212 518 3 34 3 52 0 38 -49 -264
-140 -451 -301 -620 -216 -228 -462 -340 -779 -357 l-120 -6 -60 94 c-85 133
-105 169 -162 299 -180 407 -175 787 15 1072 124 187 356 310 555 295 338 -27
570 -328 508 -658 -14 -72 -69 -187 -114 -237 -20 -21 -36 -43 -36 -48 0 -5
33 -42 74 -83 l73 -73 52 64 c110 136 166 295 165 473 -1 133 -20 220 -74 330
-199 408 -713 543 -1097 288 -184 -122 -322 -324 -384 -561 -14 -52 -22 -125
-26 -227 -6 -179 15 -333 72 -504 39 -115 129 -307 193 -411 22 -36 38 -67 37
-69 -7 -7 -142 43 -215 79 -296 149 -515 425 -608 769 -24 87 -26 114 -26 286
-1 203 8 266 61 428 31 98 114 260 179 352 67 96 221 248 328 325 192 137 431
233 673 269 101 15 381 13 483 -3 160 -27 305 -68 422 -119 52 -23 57 -29 63
-64 14 -81 65 -266 94 -337 68 -170 168 -282 312 -353 131 -64 124 -54 125
-180 1 -121 17 -180 66 -249 80 -112 218 -110 288 4 68 111 77 113 159 49 96
-74 182 -129 306 -195 66 -35 109 -60 95 -56 l-25 7 20 -23 c24 -28 110 -70
145 -71 l25 0 -25 -11 c-110 -49 -279 -132 -276 -135 3 -3 12 0 22 5 13 7 30
4 63 -10 49 -21 86 -33 216 -68 44 -12 112 -30 150 -40 39 -10 93 -24 120 -30
28 -6 129 -30 225 -54 96 -24 204 -49 240 -57 l65 -13 -55 -17 c-84 -26 -55
-22 86 12 359 86 648 91 836 14 l58 -24 -29 37 c-33 38 -34 49 -4 34 10 -5 34
-12 54 -16 29 -5 45 -18 84 -71 54 -71 99 -110 117 -99 6 4 8 3 5 -3 -4 -6 10
-22 31 -35 81 -53 92 -60 92 -56 0 3 -25 22 -55 42 -30 20 -55 38 -55 40 0 2
50 4 112 5 61 1 114 4 118 6 3 2 53 6 111 10 57 3 129 10 161 15 31 6 60 9 65
8 7 -2 93 11 203 32 25 5 76 12 115 15 38 4 80 12 95 17 26 11 36 14 180 47
47 10 130 31 185 46 55 15 107 28 115 30 17 4 103 30 253 77 l98 30 42 -32 42
-32 -35 32 c-19 18 -86 80 -149 138 l-113 105 53 14 c59 15 114 46 123 69 18
46 -6 96 -34 71 -10 -9 -10 -7 0 7 8 11 105 98 215 195 465 409 541 519 577
834 5 50 7 141 4 201 -8 133 -29 178 -121 264 -100 94 -224 150 -390 177 -145
24 -280 17 -453 -22 -64 -15 -73 -20 -78 -42 -49 -219 -167 -435 -301 -547
-124 -105 -226 -159 -538 -284 -456 -183 -667 -303 -785 -447 -46 -56 -65 -71
-105 -84 -28 -9 -52 -15 -54 -13 -3 3 8 18 24 34 16 16 27 32 24 34 -2 2 -43
-9 -90 -25 -369 -124 -927 0 -2086 463 l-301 120 -12 44 c-18 64 -7 143 29
211 44 82 178 259 239 316 51 47 140 97 175 97 9 0 17 1 17 3 0 1 -53 56 -118
122 -219 223 -346 455 -345 630 1 84 21 130 82 190 43 41 50 69 29 108 -19 37
-71 97 -82 96 -6 0 -42 -7 -80 -15z m2219 -2924 c3 -5 2 -10 -4 -10 -5 0 -13
5 -16 10 -3 6 -2 10 4 10 5 0 13 -4 16 -10z m-568 -296 c-3 -3 -12 -4 -19 -1
-8 3 -5 6 6 6 11 1 17 -2 13 -5z"/>
<path d="M3650 4280 c-186 -64 -323 -213 -337 -366 l-5 -59 129 -49 c70 -27
250 -101 398 -164 149 -63 331 -138 405 -167 589 -229 986 -287 1287 -186 49
17 183 84 335 169 331 184 478 252 549 252 33 0 72 42 126 137 92 160 121 213
119 213 -1 0 -48 -7 -104 -15 -98 -15 -178 -28 -359 -61 -49 -8 -110 -19 -138
-24 -27 -5 -88 -16 -135 -24 -353 -63 -585 -87 -880 -93 -302 -6 -447 7 -643
56 -254 64 -496 203 -622 357 -20 24 -44 44 -53 44 -9 -1 -42 -9 -72 -20z"/>
<path d="M9222 4058 c-46 -154 -104 -269 -173 -340 l-56 -57 37 -26 c38 -26
124 -125 212 -240 54 -72 211 -294 223 -315 4 -8 -91 82 -211 201 -215 212
-278 265 -350 295 -32 13 -38 13 -53 1 -65 -58 -311 -127 -450 -127 -44 0 -47
-2 -70 -43 -13 -23 -76 -91 -140 -152 -234 -221 -282 -274 -272 -293 34 -62
137 -132 261 -177 193 -69 307 -87 1015 -165 299 -33 502 -80 578 -133 16 -10
31 -17 33 -14 8 8 -43 341 -81 527 -76 373 -186 699 -317 940 -53 96 -138 230
-146 230 -4 0 -22 -51 -40 -112z"/>
<path d="M2382 2780 c0 -19 2 -27 5 -17 2 9 2 25 0 35 -3 9 -5 1 -5 -18z"/>
<path d="M7975 2548 l-40 -43 43 40 c23 21 42 40 42 42 0 8 -9 0 -45 -39z"/>
<path d="M4598 2243 c7 -3 16 -2 19 1 4 3 -2 6 -13 5 -11 0 -14 -3 -6 -6z"/>
<path d="M5320 2166 c117 -17 175 -30 242 -56 28 -11 54 -18 56 -16 6 6 -105
46 -172 61 -34 8 -97 17 -141 19 l-80 5 95 -13z"/>
<path d="M4948 2153 c6 -2 18 -2 25 0 6 3 1 5 -13 5 -14 0 -19 -2 -12 -5z"/>
<path d="M4888 2143 c7 -3 16 -2 19 1 4 3 -2 6 -13 5 -11 0 -14 -3 -6 -6z"/>
<path d="M5670 2066 c0 -3 9 -10 20 -16 11 -6 20 -8 20 -6 0 3 -9 10 -20 16
-11 6 -20 8 -20 6z"/>
</g>
</svg>
