<svg width="65" height="60" viewBox="0 0 65 60" fill="none" xmlns="http://www.w3.org/2000/svg">
<path d="M31.3167 59.7018L31.2933 59.6918L31.22 59.6518C30.791 59.4157 30.3654 59.1734 29.9433 58.9251C24.8694 55.91 20.1276 52.3681 15.7967 48.3581C8.12667 41.2013 0 30.581 0 17.5007C0 7.74043 8.21333 0.00023651 18.1267 0.00023651C20.8825 -0.0132619 23.6059 0.59472 26.0944 1.77897C28.5829 2.96321 30.7724 4.69325 32.5 6.84041C34.228 4.69281 36.418 2.9625 38.9071 1.77824C41.3962 0.593976 44.1203 -0.0137639 46.8767 0.00023651C56.7867 0.00023651 65 7.74043 65 17.5007C65 30.5844 56.8733 41.2046 49.2033 48.3548C44.8725 52.3648 40.1307 55.9067 35.0567 58.9217C34.6347 59.1712 34.2091 59.4146 33.78 59.6518L33.7067 59.6918L33.6833 59.7051L33.6733 59.7084C33.3119 59.8999 32.909 60 32.5 60C32.091 60 31.6881 59.8999 31.3267 59.7084L31.3167 59.7018Z" fill="white"/>
</svg>
